<svg width="24" height="24" viewBox="0 0 24 24" fill="none" xmlns="http://www.w3.org/2000/svg">
<path d="M12 13.5002C11.6022 13.5002 11.2206 13.3421 10.9393 13.0608C10.658 12.7795 10.5 12.398 10.5 12.0002C10.5 11.6024 10.658 11.2208 10.9393 10.9395C11.2206 10.6582 11.6022 10.5002 12 10.5002C12.3978 10.5002 12.7794 10.6582 13.0607 10.9395C13.342 11.2208 13.5 11.6024 13.5 12.0002C13.5 12.398 13.342 12.7795 13.0607 13.0608C12.7794 13.3421 12.3978 13.5002 12 13.5002ZM11.472 16.4942C11.647 16.7042 11.823 16.9082 12 17.1032C12.177 16.9082 12.353 16.7052 12.528 16.4942C12.176 16.5016 11.824 16.5016 11.472 16.4942ZM9.477 16.3692C8.70906 16.2893 7.9462 16.1664 7.192 16.0012C7.117 16.3512 7.06 16.6912 7.022 17.0172C6.832 18.6002 7.097 19.5622 7.5 19.7942C7.903 20.0272 8.868 19.7752 10.145 18.8202C10.408 18.6232 10.673 18.4042 10.939 18.1652C10.4185 17.5943 9.9304 16.9947 9.477 16.3692ZM16.808 16.0012C16.091 16.1612 15.325 16.2852 14.523 16.3692C14.0696 16.9947 13.5815 17.5943 13.061 18.1652C13.327 18.4052 13.592 18.6232 13.855 18.8202C15.132 19.7752 16.097 20.0272 16.5 19.7942C16.903 19.5622 17.167 18.6002 16.979 17.0172C16.9377 16.6761 16.881 16.3371 16.809 16.0012H16.808ZM18.258 15.6142C18.835 18.2532 18.532 20.3542 17.25 21.0942C15.968 21.8342 13.997 21.0462 12 19.2272C10.003 21.0462 8.032 21.8332 6.75 21.0932C5.468 20.3532 5.165 18.2532 5.741 15.6132C3.167 14.7942 1.5 13.4802 1.5 12.0002C1.5 10.5202 3.167 9.20717 5.741 8.38617C5.165 5.74717 5.468 3.64618 6.75 2.90618C8.032 2.16618 10.003 2.95417 12 4.77318C13.997 2.95417 15.968 2.16718 17.25 2.90718C18.532 3.64718 18.835 5.74717 18.259 8.38718C20.833 9.20617 22.5 10.5202 22.5 12.0002C22.5 13.4802 20.833 14.7932 18.259 15.6142H18.258ZM10.938 5.83518C10.6837 5.60498 10.4191 5.38642 10.145 5.18018C8.868 4.22518 7.903 3.97318 7.5 4.20618C7.097 4.43818 6.833 5.40017 7.021 6.98317C7.061 7.31017 7.117 7.64918 7.191 7.99918C7.94553 7.83391 8.70872 7.71105 9.477 7.63118C9.952 6.97818 10.442 6.37718 10.939 5.83518H10.938ZM14.523 7.63118C15.325 7.71518 16.091 7.84018 16.808 7.99918C16.883 7.64918 16.94 7.30918 16.978 6.98317C17.168 5.40017 16.903 4.43818 16.5 4.20618C16.097 3.97318 15.132 4.22518 13.855 5.18018C13.5806 5.3864 13.3156 5.60496 13.061 5.83518C13.558 6.37718 14.048 6.97818 14.523 7.63118ZM12.528 7.50618C12.353 7.29618 12.177 7.09218 12 6.89717C11.823 7.09218 11.647 7.29518 11.472 7.50618C11.824 7.49871 12.176 7.49871 12.528 7.50618ZM8.372 14.7042C8.18956 14.4033 8.01352 14.0985 7.844 13.7902C7.749 14.0472 7.661 14.3002 7.581 14.5512C7.838 14.6072 8.102 14.6582 8.371 14.7042H8.372ZM10.304 14.9382C11.4331 15.022 12.5669 15.022 13.696 14.9382C14.3332 14.0021 14.9001 13.0201 15.392 12.0002C14.9001 10.9803 14.3332 9.99822 13.696 9.06218C12.5669 8.97831 11.4331 8.97831 10.304 9.06218C9.6668 9.99822 9.09991 10.9803 8.608 12.0002C9.09991 13.0201 9.6668 14.0021 10.304 14.9382ZM16.156 10.2102C16.251 9.95318 16.339 9.70018 16.419 9.44918C16.1568 9.39229 15.8934 9.34127 15.629 9.29617C15.8111 9.59708 15.9868 9.90182 16.156 10.2102ZM6.13 9.83717C5.79 9.94718 5.468 10.0672 5.166 10.1972C3.701 10.8252 3 11.5352 3 12.0002C3 12.4652 3.7 13.1752 5.166 13.8032C5.468 13.9332 5.79 14.0532 6.13 14.1632C6.352 13.4632 6.627 12.7372 6.955 12.0002C6.63982 11.2951 6.36439 10.573 6.13 9.83717ZM7.58 9.44918C7.661 9.69918 7.749 9.95317 7.844 10.2092C8.01353 9.90115 8.18957 9.59674 8.372 9.29617C8.102 9.34217 7.838 9.39318 7.581 9.44918H7.58ZM17.87 14.1632C18.21 14.0532 18.532 13.9332 18.834 13.8032C20.299 13.1752 21 12.4652 21 12.0002C21 11.5352 20.3 10.8252 18.834 10.1972C18.5183 10.0627 18.1966 9.94255 17.87 9.83717C17.648 10.5372 17.373 11.2632 17.045 12.0002C17.373 12.7372 17.648 13.4622 17.87 14.1632ZM16.42 14.5512C16.339 14.3012 16.251 14.0472 16.156 13.7912C15.9865 14.0992 15.8104 14.4036 15.628 14.7042C15.898 14.6582 16.162 14.6072 16.419 14.5512H16.42Z" fill="#616161"/>
</svg>
