<svg width="24" height="24" viewBox="0 0 24 24" fill="none" xmlns="http://www.w3.org/2000/svg">
<path d="M7.80812 19.1031C11.6925 19.6331 15.5075 20.1544 19.3981 20.6856C18.0725 18.4787 16.7812 16.3281 15.4794 14.16C12.9287 15.8038 10.4019 17.4319 7.80875 19.1031H7.80812ZM20.495 6.8875C20.1525 7.40188 19.8094 7.91563 19.4675 8.43C18.2931 10.1969 17.1187 11.9638 15.9456 13.7313C15.88 13.83 15.7956 13.9081 15.8875 14.0594C17.0212 15.9313 18.1456 17.8088 19.2731 19.6844C19.4512 19.9806 19.6306 20.2756 19.8612 20.56C20.0887 16.0075 20.3169 11.455 20.545 6.9025C20.5281 6.8975 20.5112 6.8925 20.495 6.88812V6.8875ZM5.02 12.7237C5.07312 12.7744 5.205 12.8031 5.26687 12.7731C6.35437 12.2387 7.44875 11.7162 8.51187 11.1375C8.85875 10.9488 9.12562 10.6112 9.42437 10.3369C10.4137 9.42938 11.4019 8.52 12.3894 7.61063C12.45 7.555 12.5212 7.50063 12.5575 7.43063C12.9125 6.7375 13.2606 6.04063 13.6219 5.32375C13.1912 5.16188 12.7837 5.00375 12.3706 4.86C12.315 4.84062 12.2262 4.87937 12.1656 4.91312C11.2094 5.44687 10.2356 5.9525 9.31 6.535C8.84687 6.82625 8.46937 7.25625 8.05937 7.63C7.39812 8.23312 6.73812 8.83812 6.08687 9.45187C5.91375 9.615 5.75625 9.80063 5.62187 9.99688C5.17625 10.6456 4.74437 11.3037 4.2925 11.98C4.545 12.2419 4.775 12.4919 5.02062 12.7244L5.02 12.7237ZM8.99375 11.8375C8.45312 14.1225 7.915 16.395 7.35937 18.7419C9.96437 17.0631 12.51 15.4231 15.0381 13.7944C13.0262 13.1431 11.0206 12.4938 8.99375 11.8381V11.8375ZM19.8306 6.90937C17.6294 7.27687 15.4806 7.63625 13.3044 7.99938C14.0456 9.8025 14.7719 11.5694 15.5194 13.3869C16.965 11.215 18.3819 9.08687 19.8312 6.90937H19.8306ZM9.08437 11.37C11.0669 12.0138 13.0094 12.6444 15.0087 13.2931C14.2662 11.4844 13.5494 9.73875 12.8175 7.95688C11.5706 9.09688 10.3431 10.2194 9.08437 11.37ZM5.10187 14.0562C4.39875 15.7369 3.72 17.36 3.02875 19.0125C4.3575 18.9731 5.64562 18.935 6.9775 18.8956C6.35187 17.2819 5.73875 15.6994 5.10187 14.0556V14.0562ZM7.02375 17.7469C7.04 17.7437 7.05625 17.7394 7.07312 17.7362C7.54687 15.765 8.02812 13.8069 8.5125 11.7581C7.4325 12.3194 6.4025 12.8544 5.34437 13.405C5.88437 14.8087 6.46 16.2894 7.02437 17.7469H7.02375ZM19.0337 6.59C18.4031 6.42313 17.7725 6.25563 17.1419 6.08938C16.235 5.85125 15.3275 5.61562 14.4212 5.375C14.3081 5.345 14.2262 5.325 14.1594 5.46187C13.8394 6.11812 13.5087 6.76938 13.1837 7.42313C13.1737 7.44313 13.1756 7.46937 13.1681 7.52C15.1319 7.2225 17.0825 6.92688 19.0325 6.63125C19.0331 6.6175 19.0331 6.60375 19.0337 6.59ZM15.3756 5.0975C17.0687 5.56625 18.7625 6.03438 20.515 6.51938C20.22 5.67938 19.9469 4.90062 19.6656 4.09937C18.2262 4.41875 16.805 4.73375 15.3831 5.04875C15.3806 5.065 15.3781 5.08063 15.3756 5.09688V5.0975ZM7.46 19.4819C6.82312 19.4087 6.17 19.4762 5.52437 19.4869C4.99375 19.4962 4.46375 19.5163 3.93375 19.5325C3.87875 19.5344 3.82437 19.545 3.77 19.6038C8.15437 20.0094 12.5387 20.4144 16.9225 20.82C16.9256 20.8006 16.9281 20.7806 16.9312 20.7612C15.5256 20.5694 14.1206 20.3775 12.715 20.1856C10.9637 19.9462 9.21562 19.6838 7.46 19.4813V19.4819ZM3.115 17.5C3.68 16.1894 4.2425 14.8769 4.81 13.5675C4.86687 13.4362 4.8625 13.3469 4.75125 13.2413C4.51375 13.0156 4.29375 12.7719 4.03437 12.5025C3.68375 14.2337 3.34187 15.9213 3 17.6094C3.0125 17.615 3.02562 17.6213 3.03812 17.6275C3.06437 17.5856 3.09625 17.5456 3.11562 17.5006L3.115 17.5ZM14.25 4.75125C15.2025 4.50563 16.1694 4.31312 17.13 4.09875C17.1919 4.085 17.2531 4.06438 17.3144 4.04688C17.3112 4.03125 17.3081 4.01562 17.305 4C15.9519 4.18188 14.5981 4.36437 13.1762 4.55562C13.5637 4.725 13.8625 4.85125 14.25 4.75188V4.75125Z" fill="#616161"/>
</svg>
