<svg width="14" height="14" viewBox="0 0 14 14" fill="none" xmlns="http://www.w3.org/2000/svg">
<path d="M7 13.25C3.54813 13.25 0.75 10.4519 0.75 7C0.75 3.54813 3.54813 0.75 7 0.75C10.4519 0.75 13.25 3.54813 13.25 7C13.25 10.4519 10.4519 13.25 7 13.25ZM7 12C8.32608 12 9.59785 11.4732 10.5355 10.5355C11.4732 9.59785 12 8.32608 12 7C12 5.67392 11.4732 4.40215 10.5355 3.46447C9.59785 2.52678 8.32608 2 7 2C5.67392 2 4.40215 2.52678 3.46447 3.46447C2.52678 4.40215 2 5.67392 2 7C2 8.32608 2.52678 9.59785 3.46447 10.5355C4.40215 11.4732 5.67392 12 7 12V12ZM5.125 5.125H6.375V8.875H5.125V5.125ZM7.625 5.125H8.875V8.875H7.625V5.125Z" fill="#F48FB1"/>
</svg>
