<svg width="14" height="14" viewBox="0 0 14 14" fill="none" xmlns="http://www.w3.org/2000/svg">
<path d="M7 13.25C3.54813 13.25 0.75 10.4519 0.75 7C0.75 3.54813 3.54813 0.75 7 0.75C10.4519 0.75 13.25 3.54813 13.25 7C13.25 10.4519 10.4519 13.25 7 13.25ZM7 12C8.32608 12 9.59785 11.4732 10.5355 10.5355C11.4732 9.59785 12 8.32608 12 7C12 5.67392 11.4732 4.40215 10.5355 3.46447C9.59785 2.52678 8.32608 2 7 2C5.67392 2 4.40215 2.52678 3.46447 3.46447C2.52678 4.40215 2 5.67392 2 7C2 8.32608 2.52678 9.59785 3.46447 10.5355C4.40215 11.4732 5.67392 12 7 12ZM7 6.11625L8.7675 4.34812L9.65187 5.2325L7.88375 7L9.65187 8.7675L8.7675 9.65187L7 7.88375L5.2325 9.65187L4.34812 8.7675L6.11625 7L4.34812 5.2325L5.2325 4.34812L7 6.11625Z" fill="#BF5F82"/>
</svg>
