<svg width="14" height="13" viewBox="0 0 14 13" fill="none" xmlns="http://www.w3.org/2000/svg">
<path d="M3.53437 10.375L0.75 12.5625V1C0.75 0.83424 0.815848 0.675268 0.933058 0.558058C1.05027 0.440848 1.20924 0.375 1.375 0.375H12.625C12.7908 0.375 12.9497 0.440848 13.0669 0.558058C13.1842 0.675268 13.25 0.83424 13.25 1V9.75C13.25 9.91576 13.1842 10.0747 13.0669 10.1919C12.9497 10.3092 12.7908 10.375 12.625 10.375H3.53437ZM3.10188 9.125H12V1.625H2V9.99063L3.10188 9.125ZM6.55813 6.07563L9.21 3.42438L10.0938 4.30813L6.55813 7.84375L4.12687 5.4125L5.01125 4.52875L6.55813 6.07563Z" fill="#F48FB1"/>
</svg>
