<svg width="15" height="13" viewBox="0 0 15 13" fill="none" xmlns="http://www.w3.org/2000/svg">
<path d="M13.25 7.25H12V3.02375L7.045 7.46125L2 3.01V10.375H8.25V11.625H1.375C1.20924 11.625 1.05027 11.5592 0.933058 11.4419C0.815848 11.3247 0.75 11.1658 0.75 11V1C0.75 0.83424 0.815848 0.675268 0.933058 0.558058C1.05027 0.440848 1.20924 0.375 1.375 0.375H12.625C12.7908 0.375 12.9497 0.440848 13.0669 0.558058C13.1842 0.675268 13.25 0.83424 13.25 1V7.25ZM2.31938 1.625L7.03813 5.78875L11.6888 1.625H2.31938ZM11.375 12.25L9.165 10.04L10.0494 9.15625L11.375 10.4825L13.585 8.2725L14.4688 9.15625L11.375 12.25Z" fill="#F48FB1"/>
</svg>
